<svg width="849" height="541" viewBox="0 0 849 541" fill="none" xmlns="http://www.w3.org/2000/svg">
<path d="M145.014 111.496L142.978 161.043C142.415 174.732 153.361 186.137 167.061 186.137H684.289C697.601 186.137 708.393 175.346 708.393 162.033V112.486C708.393 99.1735 697.601 88.3817 684.289 88.3817H441.909C428.596 88.3817 417.804 77.59 417.804 64.2776V61.5994C417.804 48.2871 407.013 37.4953 393.7 37.4953H228.989C215.677 37.4953 204.885 48.2871 204.885 61.5994V64.2776C204.885 77.59 194.093 88.3817 180.781 88.3817H169.098C156.17 88.3817 145.545 98.5796 145.014 111.496Z" fill="#DF7B24" stroke="#BD6D28" stroke-width="5.35647"/>
<path d="M661.67 353.677L669.392 78.2534C669.481 75.0769 666.801 72.5217 663.632 72.7622L163.13 110.758C160.27 110.976 158.089 113.407 158.182 116.273L165.882 353.7C165.976 356.59 168.345 358.883 171.236 358.883H656.315C659.215 358.883 661.588 356.576 661.67 353.677Z" fill="#F9EEE6" stroke="#DDD3CC" stroke-width="5.35647"/>
<path d="M675.061 397.868L682.789 122.219C682.876 119.124 680.329 116.601 677.236 116.716L184.599 135.059C181.72 135.166 179.442 137.531 179.442 140.412V397.718C179.442 400.676 181.84 403.074 184.798 403.074H669.706C672.606 403.074 674.98 400.767 675.061 397.868Z" fill="#FFE0CA" stroke="#CF8F61" stroke-width="5.35647"/>
<g filter="url(#filter0_d_26_5)">
<path d="M94.9649 181.44C92.9144 168.437 102.965 156.677 116.129 156.677H736.418C747.794 156.677 756.549 166.727 754.988 177.996L715.811 460.94C712.327 486.107 690.813 504.847 665.406 504.847H189.455C164.411 504.847 143.09 486.625 139.189 461.887L94.9649 181.44Z" fill="#DF7B24"/>
<path d="M116.129 159.355H736.418C746.169 159.355 753.673 167.969 752.335 177.628L713.158 460.573C709.857 484.415 689.476 502.169 665.406 502.169H189.455C165.729 502.169 145.53 484.906 141.835 461.47L97.6105 181.023C95.8162 169.645 104.611 159.355 116.129 159.355Z" stroke="#BD6D28" stroke-width="5.35647"/>
</g>
<mask id="path-6-outside-1_26_5" maskUnits="userSpaceOnUse" x="276.64" y="128.555" width="298" height="291" fill="black">
<rect fill="white" x="276.64" y="128.555" width="298" height="291"/>
<path d="M302.64 131.755C302.64 129.988 304.073 128.555 305.84 128.555H545.838C547.605 128.555 549.038 129.988 549.038 131.755V390.5C549.038 392.268 547.605 393.7 545.838 393.7H305.84C304.073 393.7 302.64 392.268 302.64 390.5V131.755Z"/>
</mask>
<path d="M302.64 131.755C302.64 129.988 304.073 128.555 305.84 128.555H545.838C547.605 128.555 549.038 129.988 549.038 131.755V390.5C549.038 392.268 547.605 393.7 545.838 393.7H305.84C304.073 393.7 302.64 392.268 302.64 390.5V131.755Z" fill="#C1182F"/>
<path d="M302.64 128.555H549.038H302.64ZM574.638 390.5C574.638 406.406 561.744 419.3 545.838 419.3H305.84C289.935 419.3 277.041 406.406 277.041 390.5L328.24 368.101H523.438L574.638 390.5ZM305.84 419.3C289.935 419.3 277.041 406.406 277.041 390.5V157.355C277.041 141.449 289.935 128.555 305.84 128.555H328.24C328.24 128.555 328.24 129.988 328.24 131.755V368.101L305.84 419.3ZM545.838 128.555C561.744 128.555 574.638 141.449 574.638 157.355V390.5C574.638 406.406 561.744 419.3 545.838 419.3L523.438 368.101V131.755C523.438 129.988 523.438 128.555 523.438 128.555H545.838Z" fill="white" mask="url(#path-6-outside-1_26_5)"/>
<path d="M364.24 114.725L356.269 114.047L356.24 114.386V114.725V337.457V345.457H364.24H489.038H497.038V337.457V114.725H489.092C497.038 114.725 497.038 114.715 497.038 114.705L497.038 114.683L497.038 114.639C497.038 114.609 497.037 114.577 497.036 114.543C497.035 114.476 497.033 114.403 497.03 114.323C497.023 114.163 497.012 113.979 496.994 113.77C496.958 113.354 496.894 112.843 496.785 112.251C496.565 111.065 496.16 109.559 495.422 107.853C493.923 104.386 491.158 100.341 486.249 96.5568C476.567 89.0928 459.147 83.0599 427.646 83.06C396.09 83.06 378.316 89.1144 368.231 96.4112C363.139 100.095 360.137 104.01 358.408 107.351C357.554 109.002 357.036 110.463 356.723 111.621C356.567 112.198 356.463 112.698 356.393 113.107C356.358 113.311 356.331 113.493 356.311 113.65C356.301 113.729 356.293 113.801 356.286 113.868C356.282 113.901 356.279 113.932 356.276 113.962L356.272 114.006L356.27 114.027C356.269 114.037 356.269 114.047 364.24 114.725Z" fill="#F9AD19" stroke="white" stroke-width="15.9998"/>
<defs>
<filter id="filter0_d_26_5" x="83.9856" y="156.677" width="681.896" height="369.596" filterUnits="userSpaceOnUse" color-interpolation-filters="sRGB">
<feFlood flood-opacity="0" result="BackgroundImageFix"/>
<feColorMatrix in="SourceAlpha" type="matrix" values="0 0 0 0 0 0 0 0 0 0 0 0 0 0 0 0 0 0 127 0" result="hardAlpha"/>
<feOffset dy="10.7129"/>
<feGaussianBlur stdDeviation="5.35647"/>
<feComposite in2="hardAlpha" operator="out"/>
<feColorMatrix type="matrix" values="0 0 0 0 0 0 0 0 0 0 0 0 0 0 0 0 0 0 0.25 0"/>
<feBlend mode="normal" in2="BackgroundImageFix" result="effect1_dropShadow_26_5"/>
<feBlend mode="normal" in="SourceGraphic" in2="effect1_dropShadow_26_5" result="shape"/>
</filter>
</defs>
</svg>
